<svg width="110.000000" height="110.000000" viewBox="0 0 110 110" fill="none" xmlns="http://www.w3.org/2000/svg" xmlns:xlink="http://www.w3.org/1999/xlink">
	<desc>
			Created with Pixso.
	</desc>
	<defs/>
	<rect id="icon / user" width="110.000000" height="110.000000" fill="#FFFFFF" fill-opacity="0"/>
	<path id="Union" d="M37 35.5C37 25.2827 45.2827 17 55.5 17C65.7173 17 74 25.2827 74 35.5C74 45.7173 65.7173 54 55.5 54C45.2827 54 37 45.7173 37 35.5ZM55.5 26C50.2534 26 46 30.2532 46 35.5C46 40.7468 50.2534 45 55.5 45C60.7466 45 65 40.7468 65 35.5C65 30.2532 60.7466 26 55.5 26ZM32 87.5C32 74.5212 42.5212 64 55.5 64C68.4788 64 79 74.5212 79 87.5C79 89.9854 81.0146 92 83.5 92C85.9854 92 88 89.9854 88 87.5C88 69.5508 73.4492 55 55.5 55C37.5508 55 23 69.5508 23 87.5C23 89.9854 25.0146 92 27.5 92C29.9854 92 32 89.9854 32 87.5Z" clip-rule="evenodd" fill="#808080" fill-opacity="1.000000" fill-rule="evenodd"/>
</svg>
