<svg width="110.000000" height="110.000000" viewBox="0 0 110 110" fill="none" xmlns="http://www.w3.org/2000/svg" xmlns:xlink="http://www.w3.org/1999/xlink">
	<desc>
			Created with Pixso.
	</desc>
	<defs/>
	<rect id="icon / search" width="110.000000" height="110.000000" fill="#FFFFFF" fill-opacity="0"/>
	<path id="image" d="M51.49 22.91C35.73 22.91 22.91 35.73 22.91 51.49C22.91 67.25 35.73 80.07 51.49 80.07C57.92 80.07 63.84 77.91 68.61 74.32L80.2 85.9C80.98 86.68 82.01 87.08 83.05 87.08C84.08 87.08 85.11 86.68 85.9 85.9C87.47 84.32 87.47 81.77 85.9 80.2L74.32 68.61C77.91 63.84 80.07 57.92 80.07 51.49C80.07 35.73 67.25 22.91 51.49 22.91ZM30.98 51.49C30.98 40.18 40.18 30.98 51.49 30.98C62.8 30.98 72 40.18 72 51.49C72 62.8 62.8 72 51.49 72C40.18 72 30.98 62.8 30.98 51.49Z" fill="#808080" fill-opacity="1.000000" fill-rule="evenodd"/>
</svg>
