<svg width="42.000000" height="40.000000" viewBox="0 0 42 40" fill="none" xmlns="http://www.w3.org/2000/svg" xmlns:xlink="http://www.w3.org/1999/xlink">
	<desc>
			Created with Pixso.
	</desc>
	<defs>
		<clipPath id="clip86_329">
			<rect id="Frame" width="41.018677" height="40.000000" fill="white" fill-opacity="0"/>
		</clipPath>
	</defs>
	<rect id="Frame" width="41.018677" height="40.000000" fill="#FFFFFF" fill-opacity="0"/>
	<g clip-path="url(#clip86_329)">
		<path id="Vector" d="M20.5 0C9.16 0 0 9.16 0 20.5C0 29.57 5.87 37.24 14.02 39.96C15.04 40.16 15.41 39.52 15.41 38.98C15.41 38.5 15.38 36.87 15.38 35.17C9.67 36.4 8.48 32.73 8.48 32.73C7.57 30.35 6.21 29.74 6.21 29.74C4.34 28.48 6.34 28.48 6.34 28.48C8.42 28.62 9.5 30.59 9.5 30.59C11.34 33.71 14.29 32.83 15.48 32.29C15.65 30.96 16.19 30.05 16.77 29.54C12.22 29.06 7.43 27.3 7.43 19.42C7.43 17.18 8.25 15.34 9.54 13.92C9.33 13.41 8.62 11.3 9.74 8.48C9.74 8.48 11.47 7.94 15.38 10.59C17.01 10.15 18.77 9.91 20.5 9.91C22.24 9.91 24 10.15 25.63 10.59C29.54 7.94 31.27 8.48 31.27 8.48C32.39 11.3 31.68 13.41 31.47 13.92C32.8 15.34 33.58 17.18 33.58 19.42C33.58 27.3 28.79 29.03 24.21 29.54C24.95 30.18 25.6 31.4 25.6 33.34C25.6 36.09 25.56 38.3 25.56 38.98C25.56 39.52 25.94 40.16 26.96 39.96C35.11 37.24 40.98 29.57 40.98 20.5C41.01 9.16 31.81 0 20.5 0Z" fill="#FFFFFF" fill-opacity="1.000000" fill-rule="evenodd"/>
	</g>
</svg>
