<svg width="24.000000" height="24.000000" viewBox="0 0 24 24" fill="none" xmlns="http://www.w3.org/2000/svg" xmlns:xlink="http://www.w3.org/1999/xlink">
	<desc>
			Created with Pixso.
	</desc>
	<defs/>
	<rect id="icon / search" width="24.000000" height="24.000000" fill="#FFFFFF" fill-opacity="0"/>
	<path id="image" d="M11.23 5C7.79 5 5 7.79 5 11.23C5 14.67 7.79 17.46 11.23 17.46C12.63 17.46 13.92 16.99 14.97 16.21L17.49 18.74C17.66 18.91 17.89 19 18.12 19C18.34 19 18.57 18.91 18.74 18.74C19.08 18.39 19.08 17.84 18.74 17.49L16.21 14.97C16.99 13.92 17.46 12.63 17.46 11.23C17.46 7.79 14.67 5 11.23 5ZM6.75 11.23C6.75 8.76 8.76 6.75 11.23 6.75C13.7 6.75 15.71 8.76 15.71 11.23C15.71 13.7 13.7 15.71 11.23 15.71C8.76 15.71 6.75 13.7 6.75 11.23Z" fill="#808080" fill-opacity="1.000000" fill-rule="evenodd"/>
</svg>
