<svg width="110.000000" height="110.000000" viewBox="0 0 110 110" fill="none" xmlns="http://www.w3.org/2000/svg" xmlns:xlink="http://www.w3.org/1999/xlink">
	<desc>
			Created with Pixso.
	</desc>
	<defs/>
	<rect id="icon / rep" width="110.000000" height="110.000000" fill="#FFFFFF" fill-opacity="0"/>
	<path id="Union" d="M17 38.5C17 30.4919 23.4917 24 31.5 24L78.5 24C86.5083 24 93 30.4919 93 38.5L93 71.5C93 79.5081 86.5083 86 78.5 86L31.5 86C23.4917 86 17 79.5081 17 71.5L17 38.5ZM31.5 33C28.4624 33 26 35.4624 26 38.5L26 71.5C26 74.5376 28.4624 77 31.5 77L78.5 77C81.5376 77 84 74.5376 84 71.5L84 38.5C84 35.4624 81.5376 33 78.5 33L31.5 33ZM65.1982 48.6421C66.3701 47.4707 66.3701 45.571 65.1982 44.3994C64.0269 43.228 62.1274 43.228 60.9556 44.3994L55.2988 50.0564L49.6421 44.3994C48.4707 43.228 46.5708 43.228 45.3994 44.3994C44.228 45.571 44.228 47.4707 45.3994 48.6421L51.0562 54.2991L45.3994 59.9558C44.228 61.1274 44.228 63.0269 45.3994 64.1985C46.5708 65.3701 48.4707 65.3701 49.6421 64.1985L55.2988 58.5417L60.9556 64.1985C62.1274 65.3701 64.0269 65.3701 65.1982 64.1985C66.3701 63.0269 66.3701 61.1274 65.1982 59.9558L59.5415 54.2991L65.1982 48.6421Z" clip-rule="evenodd" fill="#808080" fill-opacity="1.000000" fill-rule="evenodd"/>
</svg>
